<svg width="1000" height="1000" xmlns="http://www.w3.org/2000/svg">
 <metadata>Svg Vector Icons : http://www.onlinewebfonts.com/icon</metadata>

 <g>
  <title>background</title>
  <rect fill="none" id="canvas_background" height="602" width="802" y="-1" x="-1"/>
 </g>
 <g>
  <title>Layer 1</title>
  <g id="svg_1">
   <g id="svg_2" transform="translate(0, 511) scale(0.1, -0.1)">
    <path fill="#ffffff" stroke="#ffffff" id="svg_3" d="m983.9,4466.09945c-17,-1332.1 -14.8,-4420.6 4.2,-4717.6c40.3,-678.8 222.7,-1215.5 610.9,-1803c182.4,-277.9 324.6,-449.7 627.9,-757.3c557.9,-568.5 1088.2,-963 2227.3,-1652.4l570.6,-345.8l458.2,269.4c1162.4,680.9 1750,1100.9 2271.8,1616.4c606.7,602.4 1001.2,1268.5 1168.8,1972.7c101.8,422.1 104,462.4 104,3285.7l0,2655.8l-4019.7,0l-4017.6,0l-6.4,-523.9zm7449.7,-2397c0,-2481.8 -4.2,-2556.1 -106.1,-2940c-243.9,-918.5 -865.4,-1673.6 -2025.8,-2460.6c-267.3,-180.3 -1243,-778.5 -1270.6,-778.5c-19.1,0 -708.5,420 -988.5,604.5c-1414.9,922.7 -2150.9,1781.8 -2399.1,2800c-27.6,110.3 -48.8,307.6 -61.5,562.1c-23.3,458.2 -27.6,2738.5 -6.4,3803.3l12.7,736.1l3423.6,0l3421.5,0l0,-2326.9l0.2,0z"/>
   </g>
   <line stroke-linecap="undefined" stroke-linejoin="undefined" id="svg_4" y2="662.00082" x2="816.49959" y1="58.00005" x1="143.5" stroke-width="50" stroke="#ffffff" fill="none"/>
   <line transform="rotate(97.0302, 521, 371)" stroke-linecap="undefined" stroke-linejoin="undefined" id="svg_5" y2="659.00003" x2="865.50008" y1="83.00005" x1="176.50005" stroke-width="50" stroke="#ffffff" fill="none"/>
  </g>
 </g>
</svg>